{
.appVersion = "3151";
.formatVersion = 3;
DisplayStrings = (
a
);
customParameters = (
{
name = vendorID;
value = COMM;
},
{
name = panose;
value = (
2,
13,
8,
4,
3,
5,
2,
5,
2,
3
);
},
{
name = unicodeRanges;
value = (
0,
1,
2
);
},
{
name = codePageRanges;
value = (
"1252",
"1250",
"1254",
"1257",
"bit 29"
);
},
{
name = fsType;
value = (
2
);
},
{
name = glyphOrder;
value = (
.notdef,
Eth,
eth,
Lslash,
lslash,
Scaron,
scaron,
Yacute,
yacute,
Thorn,
thorn,
Zcaron,
zcaron,
onehalf,
onequarter,
onesuperior,
threequarters,
threesuperior,
twosuperior,
brokenbar,
minus,
multiply,
space,
exclam,
quotedbl,
numbersign,
dollar,
percent,
ampersand,
quotesingle,
parenleft,
parenright,
asterisk,
plus,
comma,
hyphen,
period,
slash,
zero,
one,
two,
three,
four,
five,
six,
seven,
eight,
nine,
colon,
semicolon,
less,
equal,
greater,
question,
at,
A,
B,
C,
D,
E,
F,
G,
H,
I,
J,
K,
L,
M,
N,
O,
P,
Q,
R,
S,
T,
U,
V,
W,
X,
Y,
Z,
bracketleft,
backslash,
bracketright,
asciicircum,
underscore,
grave,
a,
b,
c,
d,
e,
f,
g,
h,
i,
j,
k,
l,
m,
n,
o,
p,
q,
r,
s,
t,
u,
v,
w,
x,
y,
z,
braceleft,
bar,
braceright,
asciitilde,
Adieresis,
Aring,
Ccedilla,
Eacute,
Ntilde,
Odieresis,
Udieresis,
aacute,
agrave,
acircumflex,
adieresis,
atilde,
aring,
ccedilla,
eacute,
egrave,
ecircumflex,
edieresis,
iacute,
igrave,
icircumflex,
idieresis,
ntilde,
oacute,
ograve,
ocircumflex,
odieresis,
otilde,
uacute,
ugrave,
ucircumflex,
udieresis,
dagger,
degree,
cent,
sterling,
section,
bullet,
paragraph,
germandbls,
registered,
copyright,
trademark,
acute,
dieresis,
notequal,
AE,
Oslash,
infinity,
plusminus,
lessequal,
greaterequal,
yen,
mu,
partialdiff,
summation,
product,
pi,
integral,
ordfeminine,
ordmasculine,
Omega,
ae,
oslash,
questiondown,
exclamdown,
logicalnot,
radical,
florin,
approxequal,
Delta,
guillemotleft,
guillemotright,
ellipsis,
uni00A0,
Agrave,
Atilde,
Otilde,
OE,
oe,
endash,
emdash,
quotedblleft,
quotedblright,
quoteleft,
quoteright,
divide,
lozenge,
ydieresis,
Ydieresis,
fraction,
Euro,

glyphs = (
{
glyphname = zero;
kernLeft = zero;
kernRight = zero;
lastChange = "2023-04-04 19:32:47 +0000";
layers = (
{
hints = (
{
horizontal = 1;
place = (-16, 132);
place = (-16, 132);
type = Stem;
},
{
horizontal = 1;
place = (569, 131);
place = (569, 131);
type = Stem;
},
{
place = (24, 173);
place = (24, 173);
type = Stem;
},
{
place = (456, 174);
place = (456, 174);
type = Stem;
}
);
layerId = m01;
shapes = (
{
closed = 1;
nodes = (
(147,700,o),
(24,560,o),
(24,342,cs),
(24,124,o),
(148,-16,o),
(326,-16,cs),
(508,-16,o),
(630,124,o),
(630,342,cs),
(630,560,o),
(511,700,o),
(327,700,cs)
);
},
{
closed = 1;
nodes = (
(419,569,o),
(456,475,o),
(456,342,cs),
(456,207,o),
(420,116,o),
(327,116,cs),
(235,116,o),
(197,208,o),
(197,342,cs),
(197,476,o),
(235,569,o),
(327,569,cs)
);
}
);
width = 653;
}
);
note = zero;
unicode = 48;
},
{
glyphname = one;
kernLeft = one;
lastChange = "2023-04-03 23:39:13 +0000";
layers = (
{
hints = (
{
horizontal = 1;
place = (0, 21);
target = up;
type = BottomGhost;
},
{
horizontal = 1;
place = (438, 114);
place = (438, 114);
type = Stem;
},
{
horizontal = 1;
place = (691, -20);
target = down;
type = TopGhost;
},
{
place = (173, 169);
place = (173, 169);
type = Stem;
}
);
layerId = m01;
shapes = (
{
closed = 1;
nodes = (
(191,598,o),
(117,555,o),
(26,552,c),
(26,438,l),
(75,438,o),
(124,438,o),
(173,438,c),
(173,0,l),
(342,0,l),
(342,691,l),
(208,691,l)
);
}
);
width = 406;
}
);
note = one;
unicode = 49;
},
{
glyphname = two;
kernLeft = two;
kernRight = two;
lastChange = "2023-04-04 06:39:39 +0000";
layers = (
{
hints = (
{
horizontal = 1;
place = (0, 139);
place = (0, 139);
type = Stem;
},
{
horizontal = 1;
place = (563, 136);
place = (563, 136);
type = Stem;
},
{
place = (32, 158);
place = (32, 158);
type = Stem;
},
{
place = (384, 169);
place = (384, 169);
type = Stem;
}
);
layerId = m01;
shapes = (
{
closed = 1;
nodes = (
(190,431,l),
(192,506,o),
(220,563,o),
(295,563,cs),
(353,563,o),
(384,527,o),
(384,474,cs),
(384,412,o),
(315,367,o),
(275,338,cs),
(153,248,o),
(25,177,o),
(22,0,c),
(554,0,l),
(554,139,l),
(256,139,l),
(304,191,o),
(378,233,o),
(439,283,cs),
(500,330,o),
(553,385,o),
(553,480,cs),
(553,601,o),
(464,699,o),
(299,699,cs),
(137,699,o),
(32,619,o),
(32,431,c)
);
}
);
width = 581;
}
);
note = two;
unicode = 50;
},
{
glyphname = three;
kernLeft = three;
kernRight = three;
lastChange = "2023-04-04 17:10:24 +0000";
layers = (
{
hints = (
{
horizontal = 1;
place = (-16, 129);
place = (-16, 129);
type = Stem;
},
{
horizontal = 1;
place = (298, 117);
place = (298, 117);
type = Stem;
},
{
horizontal = 1;
place = (573, 126);
place = (573, 126);
type = Stem;
},
{
place = (406, 171);
place = (406, 171);
type = Stem;
},
{
place = (391, 166);
place = (391, 166);
type = Stem;
}
);
layerId = m01;
shapes = (
{
closed = 1;
nodes = (
(192,468,l),
(196,527,o),
(228,573,o),
(301,573,cs),
(358,573,o),
(391,542,o),
(391,495,cs),
(391,443,o),
(349,415,o),
(285,415,cs),
(248,415,l),
(248,298,l),
(289,298,ls),
(364,298,o),
(406,268,o),
(406,208,cs),
(406,151,o),
(368,113,o),
(299,113,cs),
(213,113,o),
(177,164,o),
(173,237,c),
(14,237,l),
(14,70,o),
(126,-16,o),
(306,-16,cs),
(450,-16,o),
(577,52,o),
(577,199,cs),
(577,291,o),
(528,344,o),
(453,367,c),
(453,369,l),
(514,393,o),
(557,436,o),
(557,506,cs),
(557,627,o),
(454,699,o),
(303,699,cs),
(133,699,o),
(38,604,o),
(35,468,c)
);
}
);
width = 599;
}
);
note = three;
unicode = 51;
},
{
glyphname = four;
kernLeft = four;
kernRight = four;
lastChange = "2023-04-04 01:07:24 +0000";
layers = (
{
hints = (
{
horizontal = 1;
place = (0, 21);
target = up;
type = BottomGhost;
},
{
horizontal = 1;
place = (152, 128);
place = (152, 128);
type = Stem;
},
{
horizontal = 1;
place = (692, -20);
target = down;
type = TopGhost;
},
{
place = (21, 127);
place = (21, 127);
type = Stem;
},
{
place = (340, 164);
place = (340, 164);
type = Stem;
},
{
horizontal = 1;
place = (515, 177);
place = (515, 177);
type = Stem;
}
);
layerId = m01;
shapes = (
{
closed = 1;
nodes = (
(21,152,l),
(340,152,l),
(340,0,l),
(504,0,l),
(504,152,l),
(603,152,l),
(603,280,l),
(504,280,l),
(504,692,l),
(338,692,l),
(21,307,l)
);
},
{
closed = 1;
nodes = (
(340,515,l),
(340,280,l),
(148,280,l)
);
}
);
width = 620;
}
);
note = four;
unicode = 52;
},
{
glyphname = five;
kernLeft = five;
kernRight = five;
lastChange = "2023-04-04 01:36:27 +0000";
layers = (
{
hints = (
{
horizontal = 1;
place = (-16, 134);
place = (-16, 134);
type = Stem;
},
{
horizontal = 1;
place = (348, 121);
place = (348, 121);
type = Stem;
},
{
horizontal = 1;
place = (550, 135);
place = (550, 135);
type = Stem;
},
{
place = (410, 170);
place = (410, 170);
type = Stem;
},
{
horizontal = 1;
place = (306, 122);
place = (306, 122);
type = Stem;
}
);
layerId = m01;
shapes = (
{
closed = 1;
nodes = (
(112,685,l),
(42,306,l),
(200,306,l),
(218,329,o),
(254,348,o),
(298,348,cs),
(364,348,o),
(410,305,o),
(410,235,cs),
(410,166,o),
(367,118,o),
(299,118,cs),
(238,118,o),
(189,147,o),
(178,205,c),
(13,205,l),
(29,59,o),
(146,-16,o),
(303,-16,cs),
(467,-16,o),
(580,82,o),
(580,234,cs),
(580,379,o),
(475,469,o),
(344,469,cs),
(282,469,o),
(236,451,o),
(211,428,c),
(209,428,l),
(233,550,l),
(537,550,l),
(537,685,l)
);
}
);
width = 603;
}
);
note = five;
unicode = 53;
},
{
glyphname = six;
kernLeft = six;
kernRight = six;
lastChange = "2023-04-04 01:39:05 +0000";
layers = (
{
hints = (
{
horizontal = 1;
place = (-16, 126);
place = (-16, 126);
type = Stem;
},
{
horizontal = 1;
place = (347, 124);
place = (347, 124);
type = Stem;
},
{
horizontal = 1;
place = (579, 120);
place = (579, 120);
type = Stem;
},
{
place = (25, 176);
place = (25, 176);
type = Stem;
},
{
place = (438, 160);
place = (438, 160);
type = Stem;
}
);
layerId = m01;
shapes = (
{
closed = 1;
nodes = (
(557,627,o),
(467,699,o),
(325,699,cs),
(114,699,o),
(23,545,o),
(25,337,cs),
(26,133,o),
(125,-16,o),
(326,-16,cs),
(483,-16,o),
(598,82,o),
(598,228,cs),
(598,375,o),
(483,471,o),
(351,471,cs),
(277,471,o),
(231,445,o),
(194,406,c),
(192,406,l),
(197,516,o),
(243,579,o),
(327,579,cs),
(383,579,o),
(407,550,o),
(417,516,c),
(578,516,l)
);
},
{
closed = 1;
nodes = (
(389,347,o),
(438,295,o),
(438,227,cs),
(438,160,o),
(389,110,o),
(320,110,cs),
(250,110,o),
(201,159,o),
(201,227,cs),
(201,296,o),
(247,347,o),
(320,347,cs)
);
}
);
width = 618;
}
);
note = six;
unicode = 54;
},
{
glyphname = seven;
kernLeft = seven;
kernRight = seven;
lastChange = "2023-04-04 01:43:00 +0000";
layers = (
{
hints = (
{
horizontal = 1;
place = (0, 21);
target = up;
type = BottomGhost;
},
{
horizontal = 1;
place = (542, 143);
place = (542, 143);
type = Stem;
},
{
place = (112, 176);
place = (112, 176);
type = Stem;
}
);
layerId = m01;
shapes = (
{
closed = 1;
nodes = (
(17,542,l),
(347,542,l),
(250,441,o),
(121,249,o),
(112,0,c),
(288,0,l),
(295,235,o),
(404,434,o),
(524,555,c),
(524,685,l),
(17,685,l)
);
}
);
width = 545;
}
);
note = seven;
unicode = 55;
},
{
glyphname = eight;
kernLeft = eight;
kernRight = eight;
lastChange = "2023-04-04 18:15:21 +0000";
layers = (
{
hints = (
{
horizontal = 1;
place = (-16, 125);
place = (-16, 125);
type = Stem;
},
{
horizontal = 1;
place = (309, 107);
place = (309, 107);
type = Stem;
},
{
horizontal = 1;
place = (583, 116);
place = (583, 116);
type = Stem;
},
{
place = (19, 167);
place = (19, 167);
type = Stem;
},
{
place = (423, 168);
place = (423, 168);
type = Stem;
},
{
place = (47, 156);
place = (47, 156);
type = Stem;
},
{
place = (406, 156);
place = (406, 156);
type = Stem;
}
);
layerId = m01;
shapes = (
{
closed = 1;
nodes = (
(147,699,o),
(47,622,o),
(47,508,cs),
(47,445,o),
(78,399,o),
(138,370,c),
(138,367,l),
(64,335,o),
(19,274,o),
(19,196,cs),
(19,66,o),
(136,-16,o),
(306,-16,cs),
(475,-16,o),
(591,66,o),
(591,200,cs),
(591,279,o),
(548,342,o),
(472,371,c),
(472,374,l),
(528,404,o),
(562,451,o),
(562,511,cs),
(562,627,o),
(464,699,o),
(305,699,cs)
);
},
{
closed = 1;
nodes = (
(378,309,o),
(423,268,o),
(423,207,cs),
(423,148,o),
(375,109,o),
(305,109,cs),
(234,109,o),
(186,147,o),
(186,207,cs),
(186,268,o),
(235,309,o),
(306,309,cs)
);
},
{
closed = 1;
nodes = (
(367,583,o),
(406,549,o),
(406,500,cs),
(406,451,o),
(367,416,o),
(304,416,cs),
(241,416,o),
(203,451,o),
(203,500,cs),
(203,549,o),
(241,583,o),
(304,583,cs)
);
}
);
width = 609;
}
);
note = eight;
unicode = 56;
},
{
glyphname = nine;
kernLeft = nine;
kernRight = nine;
lastChange = "2023-04-04 02:04:11 +0000";
layers = (
{
hints = (
{
horizontal = 1;
place = (-16, 121);
place = (-16, 121);
type = Stem;
},
{
horizontal = 1;
place = (213, 124);
place = (213, 124);
type = Stem;
},
{
horizontal = 1;
place = (574, 125);
place = (574, 125);
type = Stem;
},
{
place = (21, 160);
place = (21, 160);
type = Stem;
},
{
place = (423, 170);
place = (423, 170);
type = Stem;
}
);
layerId = m01;
shapes = (
{
closed = 1;
nodes = (
(342,213,o),
(389,242,o),
(426,280,c),
(423,188,o),
(395,105,o),
(298,105,cs),
(241,105,o),
(212,136,o),
(202,170,c),
(42,170,l),
(61,60,o),
(154,-16,o),
(302,-16,cs),
(512,-16,o),
(593,137,o),
(593,347,cs),
(593,557,o),
(501,699,o),
(297,699,cs),
(137,699,o),
(21,601,o),
(21,455,cs),
(21,308,o),
(133,213,o),
(271,213,cs)
);
},
{
closed = 1;
nodes = (
(227,337,o),
(181,388,o),
(181,456,cs),
(181,523,o),
(230,574,o),
(301,574,cs),
(372,574,o),
(423,524,o),
(423,455,cs),
(423,386,o),
(371,337,o),
(301,337,cs)
);
}
);
width = 617;
}
);
note = nine;
unicode = 57;
},
{
glyphname = A;
kernLeft = A;
kernRight = A;
lastChange = "2023-04-04 19:53:11 +0000";
layers = (
{
hints = (
{
horizontal = 1;
place = (0, 21);
target = up;
type = BottomGhost;
},
{
horizontal = 1;
place = (129, 127);
place = (129, 127);
type = Stem;
},
{
horizontal = 1;
place = (715, -20);
target = down;
type = TopGhost;
},
{
place = (-1, 697);
place = (-1, 697);
type = Stem;
}
);
layerId = m01;
shapes = (
{
closed = 1;
nodes = (
(-1,0,l),
(177,0,l),
(218,129,l),
(468,129,l),
(510,0,l),
(696,0,l),
(438,715,l),
(256,715,l)
);
},
{
closed = 1;
nodes = (
(427,256,l),
(259,256,l),
(344,530,l)
);
}
);
width = 697;
}
);
note = A;
unicode = 65;
},
{
glyphname = B;
lastChange = "2023-04-04 19:53:15 +0000";
layers = (
{
hints = (
{
horizontal = 1;
place = (0, 142);
place = (0, 142);
type = Stem;
},
{
horizontal = 1;
place = (312, 120);
place = (312, 120);
type = Stem;
},
{
horizontal = 1;
place = (575, 140);
place = (575, 140);
type = Stem;
},
{
place = (49, 175);
place = (49, 175);
type = Stem;
},
{
place = (476, 175);
place = (476, 175);
type = Stem;
},
{
place = (454, 169);
place = (454, 169);
type = Stem;
}
);
layerId = m01;
shapes = (
{
closed = 1;
nodes = (
(49,0,l),
(402,0,ls),
(540,0,o),
(651,65,o),
(651,211,cs),
(651,296,o),
(601,362,o),
(523,388,c),
(586,413,o),
(623,458,o),
(623,529,cs),
(623,656,o),
(521,715,o),
(394,715,cs),
(49,715,l)
);
},
{
closed = 1;
nodes = (
(369,575,ls),
(421,575,o),
(454,549,o),
(454,504,cs),
(454,457,o),
(419,432,o),
(368,432,cs),
(224,432,l),
(224,575,l)
);
},
{
closed = 1;
nodes = (
(380,312,ls),
(434,312,o),
(476,283,o),
(476,226,cs),
(476,175,o),
(440,142,o),
(382,142,cs),
(224,142,l),
(224,312,l)
);
}
);
width = 671;
}
);
note = B;
unicode = 66;
},
{
glyphname = C;
kernLeft = C;
kernRight = C;
lastChange = "2023-04-04 02:17:52 +0000";
layers = (
{
hints = (
{
horizontal = 1;
place = (-16, 145);
place = (-16, 145);
type = Stem;
},
{
horizontal = 1;
place = (582, 147);
place = (582, 147);
type = Stem;
},
{
place = (20, 180);
place = (20, 180);
type = Stem;
}
);
layerId = m01;
shapes = (
{
closed = 1;
nodes = (
(664,634,o),
(538,729,o),
(372,729,cs),
(159,729,o),
(20,568,o),
(20,355,cs),
(20,141,o),
(163,-16,o),
(373,-16,cs),
(580,-16,o),
(679,117,o),
(688,248,c),
(511,248,l),
(503,179,o),
(451,129,o),
(372,129,cs),
(266,129,o),
(200,224,o),
(200,355,cs),
(200,485,o),
(255,582,o),
(371,582,cs),
(447,582,o),
(497,533,o),
(506,469,c),
(683,469,l)
);
}
);
width = 702;
}
);
note = C;
unicode = 67;
},
{
glyphname = D;
kernRight = Eth;
lastChange = "2023-04-04 19:53:18 +0000";
layers = (
{
hints = (
{
horizontal = 1;
place = (0, 149);
place = (0, 149);
type = Stem;
},
{
horizontal = 1;
place = (567, 148);
place = (567, 148);
type = Stem;
},
{
place = (49, 177);
place = (49, 177);
type = Stem;
},
{
place = (506, 179);
place = (506, 179);
type = Stem;
}
);
layerId = m01;
shapes = (
{
closed = 1;
nodes = (
(49,0,l),
(343,0,ls),
(566,0,o),
(685,144,o),
(685,353,cs),
(685,572,o),
(552,715,o),
(354,715,cs),
(49,715,l)
);
},
{
closed = 1;
nodes = (
(332,567,ls),
(443,567,o),
(506,483,o),
(506,353,cs),
(506,222,o),
(446,149,o),
(330,149,cs),
(226,149,l),
(226,567,l)
);
}
);
width = 705;
}
);
note = D;
unicode = 68;
},
{
glyphname = E;
kernRight = E;
layers = (
{
hints = (
{
horizontal = 1;
place = (0, 150);
place = (0, 150);
type = Stem;
},
{
horizontal = 1;
place = (303, 138);
place = (303, 138);
type = Stem;
},
{
horizontal = 1;
place = (569, 146);
place = (569, 146);
type = Stem;
},
{
place = (49, 177);
place = (49, 177);
type = Stem;
}
);
layerId = m01;
shapes = (
{
closed = 1;
nodes = (
(49,0,l),
(597,0,l),
(597,150,l),
(226,150,l),
(226,303,l),
(539,303,l),
(539,441,l),
(226,441,l),
(226,569,l),
(591,569,l),
(591,715,l),
(49,715,l)
);
}
);
width = 628;
}
);
note = E;
unicode = 69;
},
{
glyphname = F;
kernRight = F;
layers = (
{
hints = (
{
horizontal = 1;
place = (0, 21);
target = up;
type = BottomGhost;
},
{
horizontal = 1;
place = (278, 143);
place = (278, 143);
type = Stem;
},
{
horizontal = 1;
place = (566, 149);
place = (566, 149);
type = Stem;
},
{
place = (49, 177);
place = (49, 177);
type = Stem;
}
);
layerId = m01;
shapes = (
{
closed = 1;
nodes = (
(49,0,l),
(226,0,l),
(226,278,l),
(523,278,l),
(523,421,l),
(226,421,l),
(226,566,l),
(581,566,l),
(581,715,l),
(49,715,l)
);
}
);
width = 602;
}
);
note = F;
unicode = 70;
},
{
glyphname = G;
kernLeft = C;
kernRight = G;
lastChange = "2023-04-04 02:28:30 +0000";
layers = (
{
hints = (
{
horizontal = 1;
place = (-16, 143);
place = (-16, 143);
type = Stem;
},
{
horizontal = 1;
place = (254, 130);
place = (254, 130);
type = Stem;
},
{
horizontal = 1;
place = (583, 146);
place = (583, 146);
type = Stem;
},
{
place = (21, 180);
place = (21, 180);
type = Stem;
},
{
place = (571, 129);
place = (571, 129);
type = Stem;
},
{
horizontal = 1;
place = (0, 21);
target = up;
type = BottomGhost;
}
);
layerId = m01;
shapes = (
{
closed = 1;
nodes = (
(666,631,o),
(556,729,o),
(372,729,cs),
(152,729,o),
(21,565,o),
(21,355,cs),
(21,149,o),
(144,-16,o),
(361,-16,cs),
(447,-16,o),
(517,13,o),
(566,86,c),
(576,0,l),
(700,0,l),
(700,384,l),
(402,384,l),
(402,254,l),
(536,254,l),
(536,252,ls),
(529,189,o),
(474,127,o),
(381,127,cs),
(269,127,o),
(201,224,o),
(201,355,cs),
(201,485,o),
(260,583,o),
(378,583,cs),
(456,583,o),
(504,539,o),
(517,481,c),
(689,481,l)
);
}
);
width = 737;
}
);
note = G;
unicode = 71;
},
{
glyphname = H;
kernRight = H;
layers = (
{
hints = (
{
horizontal = 1;
place = (0, 21);
target = up;
type = BottomGhost;
},
{
horizontal = 1;
place = (298, 146);
place = (298, 146);
type = Stem;
},
{
horizontal = 1;
place = (715, -20);
target = down;
type = TopGhost;
},
{
place = (49, 177);
place = (49, 177);
type = Stem;
},
{
place = (477, 177);
place = (477, 177);
type = Stem;
}
);
layerId = m01;
shapes = (
{
closed = 1;
nodes = (
(49,0,l),
(226,0,l),
(226,298,l),
(477,298,l),
(477,0,l),
(654,0,l),
(654,715,l),
(477,715,l),
(477,444,l),
(226,444,l),
(226,715,l),
(49,715,l)
);
}
);
width = 703;
}
);
note = H;
unicode = 72;
},
{
glyphname = I;
kernRight = H;
layers = (
{
hints = (
{
horizontal = 1;
place = (0, 21);
target = up;
type = BottomGhost;
},
{
horizontal = 1;
place = (715, -20);
target = down;
type = TopGhost;
},
{
place = (50, 177);
place = (50, 177);
type = Stem;
}
);
layerId = m01;
shapes = (
{
closed = 1;
nodes = (
(50,0,l),
(227,0,l),
(227,715,l),
(50,715,l)
);
}
);
width = 276;
}
);
note = I;
unicode = 73;
},
{
glyphname = J;
kernLeft = J;
kernRight = J;
lastChange = "2023-04-04 02:31:00 +0000";
layers = (
{
hints = (
{
horizontal = 1;
place = (-13, 146);
place = (-13, 146);
type = Stem;
},
{
horizontal = 1;
place = (715, -20);
target = down;
type = TopGhost;
},
{
place = (13, 161);
place = (13, 161);
type = Stem;
},
{
place = (326, 177);
place = (326, 177);
type = Stem;
}
);
layerId = m01;
shapes = (
{
closed = 1;
nodes = (
(326,217,ls),
(326,165,o),
(304,133,o),
(252,133,cs),
(203,133,o),
(174,158,o),
(174,219,cs),
(174,278,l),
(13,278,l),
(13,215,ls),
(13,79,o),
(94,-13,o),
(263,-13,cs),
(406,-13,o),
(503,60,o),
(503,213,cs),
(503,715,l),
(326,715,l)
);
}
);
width = 545;
}
);
note = J;
unicode = 74;
},
{
glyphname = K;
kernRight = K;
layers = (
{
hints = (
{
horizontal = 1;
place = (0, 21);
target = up;
type = BottomGhost;
},
{
horizontal = 1;
place = (715, -20);
target = down;
type = TopGhost;
},
{
place = (49, 177);
place = (49, 177);
type = Stem;
}
);
layerId = m01;
shapes = (
{
closed = 1;
nodes = (
(49,0,l),
(226,0,l),
(226,246,l),
(286,309,l),
(492,0,l),
(698,0,l),
(408,428,l),
(682,715,l),
(472,715,l),
(226,456,l),
(226,715,l),
(49,715,l)
);
}
);
width = 697;
}
);
note = K;
unicode = 75;
},
{
glyphname = L;
kernRight = L;
layers = (
{
hints = (
{
horizontal = 1;
place = (0, 150);
place = (0, 150);
type = Stem;
},
{
horizontal = 1;
place = (715, -20);
target = down;
type = TopGhost;
},
{
place = (49, 177);
place = (49, 177);
type = Stem;
}
);
layerId = m01;
shapes = (
{
closed = 1;
nodes = (
(49,0,l),
(547,0,l),
(547,150,l),
(226,150,l),
(226,715,l),
(49,715,l)
);
}
);
width = 565;
}
);
note = L;
unicode = 76;
},
{
glyphname = M;
kernRight = H;
lastChange = "2023-04-04 02:45:10 +0000";
layers = (
{
hints = (
{
horizontal = 1;
place = (0, 21);
target = up;
type = BottomGhost;
},
{
horizontal = 1;
place = (715, -20);
target = down;
type = TopGhost;
},
{
place = (49, 159);
place = (49, 159);
type = Stem;
},
{
place = (623, 162);
place = (623, 162);
type = Stem;
}
);
layerId = m01;
shapes = (
{
closed = 1;
nodes = (
(49,0,l),
(208,0,l),
(205,503,l),
(207,503,l),
(342,0,l),
(488,0,l),
(624,503,l),
(626,503,l),
(623,0,l),
(785,0,l),
(785,715,l),
(545,715,l),
(417,239,l),
(415,239,l),
(287,715,l),
(49,715,l)
);
}
);
width = 834;
}
);
note = M;
unicode = 77;
},
{
glyphname = N;
kernRight = H;
lastChange = "2023-04-04 02:46:20 +0000";
layers = (
{
hints = (
{
horizontal = 1;
place = (0, 21);
target = up;
type = BottomGhost;
},
{
horizontal = 1;
place = (715, -20);
target = down;
type = TopGhost;
},
{
place = (49, 173);
place = (49, 173);
type = Stem;
},
{
place = (488, 173);
place = (488, 173);
type = Stem;
}
);
layerId = m01;
shapes = (
{
closed = 1;
nodes = (
(49,0,l),
(222,0,l),
(220,450,l),
(222,450,l),
(483,0,l),
(661,0,l),
(661,715,l),
(488,715,l),
(490,265,l),
(488,265,l),
(227,715,l),
(49,715,l)
);
}
);
width = 710;
}
);
note = N;
unicode = 78;
},
{
glyphname = O;
kernLeft = C;
kernRight = O;
lastChange = "2023-04-04 19:53:21 +0000";
layers = (
{
hints = (
{
horizontal = 1;
place = (-17, 144);
place = (-17, 144);
type = Stem;
},
{
horizontal = 1;
place = (586, 143);
place = (586, 143);
type = Stem;
},
{
place = (20, 180);
place = (20, 180);
type = Stem;
},
{
place = (547, 180);
place = (547, 180);
type = Stem;
}
);
layerId = m01;
shapes = (
{
closed = 1;
nodes = (
(157,729,o),
(20,570,o),
(20,356,cs),
(20,142,o),
(157,-17,o),
(373,-17,cs),
(590,-17,o),
(727,142,o),
(727,356,cs),
(727,570,o),
(590,729,o),
(373,729,cs)
);
},
{
closed = 1;
nodes = (
(490,586,o),
(547,486,o),
(547,356,cs),
(547,226,o),
(490,127,o),
(374,127,cs),
(259,127,o),
(200,226,o),
(200,356,cs),
(200,486,o),
(259,586,o),
(374,586,cs)
);
}
);
width = 747;
}
);
note = O;
unicode = 79;
},
{
glyphname = P;
kernRight = P;
lastChange = "2023-04-04 19:53:23 +0000";
layers = (
{
hints = (
{
horizontal = 1;
place = (0, 21);
target = up;
type = BottomGhost;
},
{
horizontal = 1;
place = (239, 140);
place = (239, 140);
type = Stem;
},
{
horizontal = 1;
place = (566, 149);
place = (566, 149);
type = Stem;
},
{
place = (49, 180);
place = (49, 180);
type = Stem;
},
{
place = (460, 178);
place = (460, 178);
type = Stem;
}
);
layerId = m01;
shapes = (
{
closed = 1;
nodes = (
(49,0,l),
(229,0,l),
(229,239,l),
(396,239,ls),
(543,239,o),
(638,336,o),
(638,473,cs),
(638,626,o),
(528,715,o),
(371,715,cs),
(49,715,l)
);
},
{
closed = 1;
nodes = (
(360,566,ls),
(423,566,o),
(460,531,o),
(460,474,cs),
(460,417,o),
(424,379,o),
(360,379,cs),
(229,379,l),
(229,566,l)
);
}
);
width = 652;
}
);
note = P;
unicode = 80;
},
{
glyphname = Q;
kernLeft = C;
kernRight = Q;
lastChange = "2023-04-04 19:53:26 +0000";
layers = (
{
hints = (
{
horizontal = 1;
place = (-17, 144);
place = (-17, 144);
type = Stem;
},
{
horizontal = 1;
place = (586, 143);
place = (586, 143);
type = Stem;
},
{
place = (20, 180);
place = (20, 180);
type = Stem;
},
{
place = (545, 180);
place = (545, 180);
type = Stem;
}
);
layerId = m01;
shapes = (
{
closed = 1;
nodes = (
(156,729,o),
(20,570,o),
(20,356,cs),
(20,142,o),
(156,-17,o),
(372,-17,cs),
(441,-17,o),
(501,-1,o),
(552,28,c),
(642,-58,l),
(724,29,l),
(643,105,l),
(696,170,o),
(725,257,o),
(725,356,cs),
(725,570,o),
(589,729,o),
(372,729,cs)
);
},
{
closed = 1;
nodes = (
(489,586,o),
(545,486,o),
(545,356,cs),
(545,306,o),
(537,261,o),
(520,224,c),
(454,287,l),
(372,202,l),
(437,139,l),
(418,131,o),
(397,127,o),
(373,127,cs),
(258,127,o),
(200,226,o),
(200,356,cs),
(200,486,o),
(258,586,o),
(373,586,cs)
);
}
);
width = 745;
}
);
note = Q;
unicode = 81;
},
{
glyphname = R;
kernRight = R;
lastChange = "2023-04-04 19:53:28 +0000";
layers = (
{
hints = (
{
horizontal = 1;
place = (0, 9);
place = (0, 9);
type = Stem;
},
{
horizontal = 1;
place = (268, 131);
place = (268, 131);
type = Stem;
},
{
horizontal = 1;
place = (575, 140);
place = (575, 140);
type = Stem;
},
{
place = (49, 177);
place = (49, 177);
type = Stem;
},
{
place = (465, 176);
place = (465, 176);
type = Stem;
}
);
layerId = m01;
shapes = (
{
closed = 1;
nodes = (
(49,0,l),
(226,0,l),
(226,268,l),
(333,268,ls),
(409,268,o),
(443,232,o),
(452,166,cs),
(458,125,o),
(460,79,o),
(464,46,cs),
(467,22,o),
(471,5,o),
(479,0,c),
(651,0,l),
(651,9,l),
(641,13,o),
(636,30,o),
(634,55,cs),
(630,92,o),
(630,146,o),
(621,202,cs),
(611,273,o),
(579,312,o),
(517,333,c),
(517,336,l),
(600,365,o),
(641,426,o),
(641,509,cs),
(641,642,o),
(533,715,o),
(391,715,cs),
(49,715,l)
);
},
{
closed = 1;
nodes = (
(363,575,ls),
(431,575,o),
(465,538,o),
(465,486,cs),
(465,432,o),
(429,399,o),
(359,399,cs),
(226,399,l),
(226,575,l)
);
}
);
width = 671;
}
);
note = R;
unicode = 82;
},
{
glyphname = S;
kernLeft = Scaron;
kernRight = Scaron;
lastChange = "2023-04-04 03:05:44 +0000";
layers = (
{
hints = (
{
horizontal = 1;
place = (-17, 140);
place = (-17, 140);
type = Stem;
},
{
horizontal = 1;
place = (594, 134);
place = (594, 134);
type = Stem;
},
{
place = (37, 175);
place = (37, 175);
type = Stem;
},
{
place = (448, 179);
place = (448, 179);
type = Stem;
}
);
layerId = m01;
shapes = (
{
closed = 1;
nodes = (
(596,658,o),
(476,728,o),
(321,728,cs),
(161,728,o),
(37,661,o),
(37,508,cs),
(37,358,o),
(168,320,o),
(292,291,cs),
(390,267,o),
(448,255,o),
(448,198,cs),
(448,144,o),
(391,123,o),
(333,123,cs),
(248,123,o),
(201,153,o),
(193,225,c),
(15,225,l),
(19,67,o),
(144,-17,o),
(334,-17,cs),
(499,-17,o),
(627,66,o),
(627,216,cs),
(627,369,o),
(507,410,o),
(374,441,cs),
(267,465,o),
(212,477,o),
(212,527,cs),
(212,567,o),
(253,594,o),
(315,594,cs),
(381,594,o),
(423,563,o),
(430,508,c),
(603,508,l)
);
}
);
width = 650;
}
);
note = S;
unicode = 83;
},
{
glyphname = T;
kernLeft = T;
kernRight = T;
lastChange = "2023-04-04 03:09:45 +0000";
layers = (
{
hints = (
{
horizontal = 1;
place = (0, 21);
target = up;
type = BottomGhost;
},
{
horizontal = 1;
place = (565, 150);
place = (565, 150);
type = Stem;
},
{
place = (225, 177);
place = (225, 177);
type = Stem;
}
);
layerId = m01;
shapes = (
{
closed = 1;
nodes = (
(17,565,l),
(225,565,l),
(225,0,l),
(402,0,l),
(402,565,l),
(612,565,l),
(612,715,l),
(17,715,l)
);
}
);
width = 629;
}
);
note = T;
unicode = 84;
},
{
glyphname = U;
kernLeft = U;
kernRight = U;
lastChange = "2023-04-04 03:09:50 +0000";
layers = (
{
hints = (
{
horizontal = 1;
place = (-13, 142);
place = (-13, 142);
type = Stem;
},
{
horizontal = 1;
place = (715, -20);
target = down;
type = TopGhost;
},
{
place = (44, 177);
place = (44, 177);
type = Stem;
},
{
place = (465, 177);
place = (465, 177);
type = Stem;
}
);
layerId = m01;
shapes = (
{
closed = 1;
nodes = (
(44,252,ls),
(44,85,o),
(144,-13,o),
(344,-13,cs),
(543,-13,o),
(642,87,o),
(642,252,cs),
(642,715,l),
(465,715,l),
(465,249,ls),
(465,179,o),
(426,129,o),
(344,129,cs),
(257,129,o),
(221,176,o),
(221,246,cs),
(221,715,l),
(44,715,l)
);
}
);
width = 686;
}
);
note = U;
unicode = 85;
},
{
glyphname = V;
kernLeft = V;
kernRight = V;
lastChange = "2023-04-04 03:09:55 +0000";
layers = (
{
hints = (
{
horizontal = 1;
place = (0, 21);
target = up;
type = BottomGhost;
},
{
horizontal = 1;
place = (715, -20);
target = down;
type = TopGhost;
},
{
place = (-2, 654);
place = (-2, 654);
type = Stem;
}
);
layerId = m01;
shapes = (
{
closed = 1;
nodes = (
(234,0,l),
(417,0,l),
(652,715,l),
(473,715,l),
(329,214,l),
(327,214,l),
(182,715,l),
(-2,715,l)
);
}
);
width = 651;
}
);
note = V;
unicode = 86;
},
{
glyphname = W;
kernLeft = W;
kernRight = W;
lastChange = "2023-04-04 03:10:57 +0000";
layers = (
{
hints = (
{
horizontal = 1;
place = (0, 21);
target = up;
type = BottomGhost;
},
{
horizontal = 1;
place = (715, -20);
target = down;
type = TopGhost;
},
{
place = (0, 940);
place = (0, 940);
type = Stem;
}
);
layerId = m01;
shapes = (
{
closed = 1;
nodes = (
(196,0,l),
(370,0,l),
(469,476,l),
(471,476,l),
(571,0,l),
(744,0,l),
(940,715,l),
(762,715,l),
(655,238,l),
(653,238,l),
(552,715,l),
(388,715,l),
(286,238,l),
(284,238,l),
(179,715,l),
(0,715,l)
);
}
);
width = 940;
}
);
note = W;
unicode = 87;
},
{
glyphname = X;
kernLeft = X;
kernRight = X;
lastChange = "2023-04-04 04:43:14 +0000";
layers = (
{
hints = (
{
horizontal = 1;
place = (0, 21);
target = up;
type = BottomGhost;
},
{
horizontal = 1;
place = (715, -20);
target = down;
type = TopGhost;
},
{
place = (3, 685);
place = (3, 685);
type = Stem;
}
);
layerId = m01;
shapes = (
{
closed = 1;
nodes = (
(240,375,l),
(3,0,l),
(204,0,l),
(343,242,l),
(345,242,l),
(479,0,l),
(688,0,l),
(451,377,l),
(663,715,l),
(471,715,l),
(348,507,l),
(346,507,l),
(225,715,l),
(23,715,l)
);
}
);
width = 691;
}
);
note = X;
unicode = 88;
},
{
glyphname = Y;
kernLeft = Yacute;
kernRight = Yacute;
lastChange = "2023-04-04 04:46:12 +0000";
layers = (
{
hints = (
{
horizontal = 1;
place = (0, 21);
target = up;
type = BottomGhost;
},
{
horizontal = 1;
place = (715, -20);
target = down;
type = TopGhost;
},
{
place = (243, 177);
place = (243, 177);
type = Stem;
}
);
layerId = m01;
shapes = (
{
closed = 1;
nodes = (
(243,264,l),
(243,0,l),
(420,0,l),
(420,264,l),
(662,715,l),
(475,715,l),
(335,421,l),
(333,421,l),
(194,715,l),
(1,715,l)
);
}
);
width = 663;
}
);
note = Y;
unicode = 89;
},
{
glyphname = Z;
kernLeft = Zcaron;
kernRight = Zcaron;
lastChange = "2023-04-04 04:54:23 +0000";
layers = (
{
hints = (
{
horizontal = 1;
place = (0, 151);
place = (0, 151);
type = Stem;
},
{
horizontal = 1;
place = (565, 150);
place = (565, 150);
type = Stem;
},
{
place = (26, 595);
place = (26, 595);
type = Stem;
}
);
layerId = m01;
shapes = (
{
closed = 1;
nodes = (
(51,565,l),
(383,567,l),
(383,564,l),
(26,141,l),
(26,0,l),
(621,0,l),
(621,151,l),
(250,149,l),
(250,152,l),
(608,576,l),
(608,715,l),
(51,715,l)
);
}
);
width = 648;
}
);
note = Z;
unicode = 90;
},
{
glyphname = a;
kernLeft = a;
kernRight = a;
lastChange = "2023-04-04 20:23:47 +0000";
layers = (
{
hints = (
{
horizontal = 1;
place = (-13, 20);
place = (-13, 20);
type = Stem;
},
{
horizontal = 1;
place = (416, 110);
place = (416, 110);
type = Stem;
},
{
place = (15, 157);
place = (15, 157);
type = Stem;
},
{
place = (345, 156);
place = (345, 156);
type = Stem;
},
{
horizontal = 1;
place = (0, 7);
place = (0, 7);
type = Stem;
},
{
horizontal = 1;
place = (350, 176);
place = (350, 176);
type = Stem;
},
{
horizontal = 1;
place = (-13, 104);
place = (-13, 104);
type = Stem;
}
);
layerId = m01;
shapes = (
{
closed = 1;
nodes = (
(188,350,l),
(193,393,o),
(219,416,o),
(271,416,cs),
(320,416,o),
(341,394,o),
(341,361,cs),
(341,326,o),
(307,316,o),
(211,304,cs),
(105,290,o),
(15,256,o),
(15,143,cs),
(15,42,o),
(88,-13,o),
(190,-13,cs),
(267,-13,o),
(312,14,o),
(342,57,c),
(344,57,l),
(346,46,ls),
(348,37,o),
(350,27,o),
(352,20,cs),
(355,11,o),
(357,5,o),
(361,0,c),
(519,0,l),
(519,7,l),
(511,12,o),
(507,21,o),
(504,35,cs),
(502,46,o),
(501,61,o),
(501,80,cs),
(501,338,ls),
(501,475,o),
(409,526,o),
(270,526,cs),
(115,526,o),
(42,445,o),
(38,350,c)
);
},
{
closed = 1;
nodes = (
(345,183,ls),
(345,128,o),
(303,91,o),
(242,91,cs),
(202,91,o),
(172,107,o),
(172,148,cs),
(172,187,o),
(198,203,o),
(261,217,cs),
(294,225,o),
(324,233,o),
(345,244,c)
);
}
);
width = 541;
}
);
note = a;
unicode = 97;
},
{
glyphname = b;
kernLeft = b;
kernRight = thorn;
lastChange = "2023-04-04 19:53:34 +0000";
layers = (
{
hints = (
{
horizontal = 1;
place = (-16, 129);
place = (-16, 129);
type = Stem;
},
{
horizontal = 1;
place = (403, 124);
place = (403, 124);
type = Stem;
},
{
horizontal = 1;
place = (715, -20);
target = down;
type = TopGhost;
},
{
place = (39, 163);
place = (39, 163);
type = Stem;
},
{
place = (405, 165);
place = (405, 165);
type = Stem;
},
{
horizontal = 1;
place = (0, 113);
place = (0, 113);
type = Stem;
}
);
layerId = m01;
shapes = (
{
closed = 1;
nodes = (
(39,0,l),
(195,0,l),
(195,65,l),
(197,65,l),
(229,12,o),
(284,-16,o),
(352,-16,cs),
(484,-16,o),
(570,86,o),
(570,256,cs),
(570,410,o),
(484,527,o),
(351,527,cs),
(281,527,o),
(237,498,o),
(205,454,c),
(202,454,l),
(202,715,l),
(39,715,l)
);
},
{
closed = 1;
nodes = (
(370,403,o),
(405,345,o),
(405,257,cs),
(405,168,o),
(370,113,o),
(306,113,cs),
(239,113,o),
(197,171,o),
(197,256,cs),
(197,340,o),
(232,403,o),
(304,403,cs)
);
}
);
width = 586;
}
);
note = b;
unicode = 98;
},
{
glyphname = c;
kernLeft = c;
kernRight = c;
lastChange = "2023-04-04 05:10:24 +0000";
layers = (
{
hints = (
{
horizontal = 1;
place = (-16, 122);
place = (-16, 122);
type = Stem;
},
{
horizontal = 1;
place = (406, 120);
place = (406, 120);
type = Stem;
},
{
place = (16, 165);
place = (16, 165);
type = Stem;
}
);
layerId = m01;
shapes = (
{
closed = 1;
nodes = (
(512,445,o),
(423,526,o),
(284,526,cs),
(122,526,o),
(16,409,o),
(16,255,cs),
(16,101,o),
(123,-16,o),
(288,-16,cs),
(433,-16,o),
(527,76,o),
(531,194,c),
(375,194,l),
(368,136,o),
(337,106,o),
(286,106,cs),
(216,106,o),
(181,164,o),
(181,255,cs),
(181,348,o),
(216,406,o),
(286,406,cs),
(332,406,o),
(360,376,o),
(370,330,c),
(527,330,l)
);
}
);
width = 544;
}
);
note = c;
unicode = 99;
},
{
glyphname = d;
kernLeft = d;
kernRight = d;
lastChange = "2023-04-04 19:53:37 +0000";
layers = (
{
hints = (
{
horizontal = 1;
place = (-16, 129);
place = (-16, 129);
type = Stem;
},
{
horizontal = 1;
place = (404, 123);
place = (404, 123);
type = Stem;
},
{
horizontal = 1;
place = (715, -20);
target = down;
type = TopGhost;
},
{
place = (16, 165);
place = (16, 165);
type = Stem;
},
{
place = (386, 163);
place = (386, 163);
type = Stem;
},
{
horizontal = 1;
place = (0, 113);
place = (0, 113);
type = Stem;
}
);
layerId = m01;
shapes = (
{
closed = 1;
nodes = (
(386,454,l),
(383,454,l),
(353,497,o),
(312,527,o),
(240,527,cs),
(108,527,o),
(16,416,o),
(16,256,cs),
(16,85,o),
(109,-16,o),
(240,-16,cs),
(307,-16,o),
(360,16,o),
(391,69,c),
(393,69,l),
(393,0,l),
(549,0,l),
(549,715,l),
(386,715,l)
);
},
{
closed = 1;
nodes = (
(355,404,o),
(390,342,o),
(390,256,cs),
(390,172,o),
(350,113,o),
(282,113,cs),
(219,113,o),
(181,169,o),
(181,258,cs),
(181,344,o),
(219,404,o),
(284,404,cs)
);
}
);
width = 588;
}
);
note = d;
unicode = 100;
},
{
glyphname = e;
kernLeft = c;
kernRight = e;
lastChange = "2023-04-04 19:53:39 +0000";
layers = (
{
hints = (
{
horizontal = 1;
place = (-15, 117);
place = (-15, 117);
type = Stem;
},
{
horizontal = 1;
place = (214, 97);
place = (214, 97);
type = Stem;
},
{
horizontal = 1;
place = (411, 116);
place = (411, 116);
type = Stem;
},
{
place = (16, 528);
place = (16, 528);
type = Stem;
}
);
layerId = m01;
shapes = (
{
closed = 1;
nodes = (
(546,391,o),
(455,527,o),
(279,527,cs),
(123,527,o),
(16,410,o),
(16,257,cs),
(16,102,o),
(120,-15,o),
(289,-15,cs),
(410,-15,o),
(511,54,o),
(535,153,c),
(376,153,l),
(362,121,o),
(334,102,o),
(291,102,cs),
(224,102,o),
(186,145,o),
(176,214,c),
(544,214,l)
);
},
{
closed = 1;
nodes = (
(177,311,l),
(188,372,o),
(220,411,o),
(282,411,cs),
(335,411,o),
(373,372,o),
(379,311,c)
);
}
);
width = 560;
}
);
note = e;
unicode = 101;
},
{
glyphname = f;
kernLeft = f;
kernRight = f;
lastChange = "2023-04-04 05:31:24 +0000";
layers = (
{
hints = (
{
horizontal = 1;
place = (0, 21);
target = up;
type = BottomGhost;
},
{
horizontal = 1;
place = (408, 104);
place = (408, 104);
type = Stem;
},
{
horizontal = 1;
place = (597, 118);
place = (597, 118);
type = Stem;
},
{
place = (77, 163);
place = (77, 163);
type = Stem;
},
{
horizontal = 1;
place = (597, 115);
place = (597, 115);
type = Stem;
}
);
layerId = m01;
shapes = (
{
closed = 1;
nodes = (
(11,408,l),
(77,408,l),
(77,0,l),
(240,0,l),
(240,408,l),
(336,408,l),
(336,512,l),
(240,512,l),
(240,537,ls),
(240,585,o),
(265,596,o),
(310,597,cs),
(318,597,o),
(327,597,o),
(336,597,c),
(336,712,l),
(319,714,o),
(301,715,o),
(285,715,cs),
(159,716,o),
(77,675,o),
(77,549,cs),
(77,512,l),
(11,512,l)
);
}
);
width = 349;
}
);
note = f;
unicode = 102;
},
{
glyphname = g;
kernLeft = g;
kernRight = g;
lastChange = "2023-04-04 19:53:41 +0000";
layers = (
{
hints = (
{
horizontal = 1;
place = (-177, 115);
place = (-177, 115);
type = Stem;
},
{
horizontal = 1;
place = (28, 121);
place = (28, 121);
type = Stem;
},
{
horizontal = 1;
place = (404, 123);
place = (404, 123);
type = Stem;
},
{
place = (16, 159);
place = (16, 159);
type = Stem;
},
{
place = (373, 160);
place = (373, 160);
type = Stem;
},
{
horizontal = 1;
place = (404, 108);
place = (404, 108);
type = Stem;
},
{
horizontal = 1;
place = (-177, 165);
place = (-177, 165);
type = Stem;
}
);
layerId = m01;
shapes = (
{
closed = 1;
nodes = (
(377,457,l),
(375,457,l),
(345,500,o),
(299,527,o),
(231,527,cs),
(104,527,o),
(16,421,o),
(16,271,cs),
(16,114,o),
(123,28,o),
(238,28,cs),
(300,28,o),
(339,53,o),
(369,87,c),
(373,87,l),
(373,36,ls),
(373,-26,o),
(344,-62,o),
(275,-62,cs),
(221,-62,o),
(194,-39,o),
(185,-12,c),
(27,-12,l),
(43,-119,o),
(136,-177,o),
(277,-177,cs),
(443,-177,o),
(533,-94,o),
(533,50,cs),
(533,512,l),
(377,512,l)
);
},
{
closed = 1;
nodes = (
(344,404,o),
(380,346,o),
(380,277,cs),
(380,205,o),
(347,149,o),
(276,149,cs),
(215,149,o),
(175,199,o),
(175,276,cs),
(175,354,o),
(215,404,o),
(276,404,cs)
);
}
);
width = 572;
}
);
note = g;
unicode = 103;
},
{
glyphname = h;
kernLeft = b;
kernRight = h;
layers = (
{
hints = (
{
horizontal = 1;
place = (0, 21);
target = up;
type = BottomGhost;
},
{
horizontal = 1;
place = (391, 136);
place = (391, 136);
type = Stem;
},
{
horizontal = 1;
place = (715, -20);
target = down;
type = TopGhost;
},
{
place = (39, 163);
place = (39, 163);
type = Stem;
},
{
place = (372, 163);
place = (372, 163);
type = Stem;
}
);
layerId = m01;
shapes = (
{
closed = 1;
nodes = (
(39,0,l),
(202,0,l),
(202,283,ls),
(202,346,o),
(238,391,o),
(292,391,cs),
(345,391,o),
(372,354,o),
(372,300,cs),
(372,0,l),
(535,0,l),
(535,333,ls),
(535,447,o),
(469,527,o),
(357,527,cs),
(286,527,o),
(242,498,o),
(205,449,c),
(202,449,l),
(202,715,l),
(39,715,l)
);
}
);
width = 570;
}
);
note = h;
unicode = 104;
},
{
glyphname = i;
kernLeft = b;
kernRight = d;
layers = (
{
hints = (
{
horizontal = 1;
place = (0, 21);
target = up;
type = BottomGhost;
},
{
horizontal = 1;
place = (512, -20);
target = down;
type = TopGhost;
},
{
horizontal = 1;
place = (583, 132);
place = (583, 132);
type = Stem;
},
{
place = (39, 163);
place = (39, 163);
type = Stem;
}
);
layerId = m01;
shapes = (
{
closed = 1;
nodes = (
(39,0,l),
(202,0,l),
(202,512,l),
(39,512,l)
);
},
{
closed = 1;
nodes = (
(39,583,l),
(202,583,l),
(202,715,l),
(39,715,l)
);
}
);
width = 241;
}
);
note = i;
unicode = 105;
},
{
glyphname = j;
kernLeft = j;
kernRight = j;
lastChange = "2023-04-04 05:43:09 +0000";
layers = (
{
hints = (
{
horizontal = 1;
place = (-172, 121);
place = (-172, 121);
type = Stem;
},
{
horizontal = 1;
place = (512, -20);
target = down;
type = TopGhost;
},
{
horizontal = 1;
place = (583, 132);
place = (583, 132);
type = Stem;
},
{
place = (39, 163);
place = (39, 163);
type = Stem;
}
);
layerId = m01;
shapes = (
{
closed = 1;
nodes = (
(39,4,ls),
(39,-41,o),
(19,-49,o),
(-19,-51,cs),
(-28,-51,o),
(-37,-51,o),
(-47,-51,c),
(-47,-164,l),
(-22,-169,o),
(17,-172,o),
(45,-172,cs),
(155,-172,o),
(202,-116,o),
(202,-4,cs),
(202,512,l),
(39,512,l)
);
},
{
closed = 1;
nodes = (
(39,583,l),
(202,583,l),
(202,715,l),
(39,715,l)
);
}
);
width = 241;
}
);
note = j;
unicode = 106;
},
{
glyphname = k;
kernLeft = b;
kernRight = k;
layers = (
{
hints = (
{
horizontal = 1;
place = (0, 21);
target = up;
type = BottomGhost;
},
{
horizontal = 1;
place = (512, -20);
target = down;
type = TopGhost;
},
{
horizontal = 1;
place = (715, -20);
target = down;
type = TopGhost;
},
{
place = (39, 161);
place = (39, 161);
type = Stem;
}
);
layerId = m01;
shapes = (
{
closed = 1;
nodes = (
(39,0,l),
(200,0,l),
(200,157,l),
(249,209,l),
(372,0,l),
(561,0,l),
(360,320,l),
(540,512,l),
(352,512,l),
(200,339,l),
(200,715,l),
(39,715,l)
);
}
);
width = 560;
}
);
note = k;
unicode = 107;
},
{
glyphname = l;
kernLeft = b;
kernRight = d;
layers = (
{
hints = (
{
horizontal = 1;
place = (0, 21);
target = up;
type = BottomGhost;
},
{
horizontal = 1;
place = (715, -20);
target = down;
type = TopGhost;
},
{
place = (40, 165);
place = (40, 165);
type = Stem;
}
);
layerId = m01;
shapes = (
{
closed = 1;
nodes = (
(40,0,l),
(205,0,l),
(205,715,l),
(40,715,l)
);
}
);
width = 245;
}
);
note = l;
unicode = 108;
},
{
glyphname = m;
kernLeft = m;
kernRight = h;
layers = (
{
hints = (
{
horizontal = 1;
place = (0, 21);
target = up;
type = BottomGhost;
},
{
horizontal = 1;
place = (391, 136);
place = (391, 136);
type = Stem;
},
{
place = (39, 163);
place = (39, 163);
type = Stem;
},
{
place = (355, 163);
place = (355, 163);
type = Stem;
},
{
place = (671, 163);
place = (671, 163);
type = Stem;
},
{
horizontal = 1;
place = (391, 121);
place = (391, 121);
type = Stem;
}
);
layerId = m01;
shapes = (
{
closed = 1;
nodes = (
(39,0,l),
(202,0,l),
(202,287,ls),
(202,348,o),
(232,391,o),
(283,391,cs),
(332,391,o),
(355,359,o),
(355,304,cs),
(355,0,l),
(518,0,l),
(518,287,ls),
(518,348,o),
(547,391,o),
(599,391,cs),
(648,391,o),
(671,359,o),
(671,304,cs),
(671,0,l),
(834,0,l),
(834,333,ls),
(834,448,o),
(776,527,o),
(660,527,cs),
(594,527,o),
(539,499,o),
(499,437,c),
(497,437,l),
(471,492,o),
(420,527,o),
(353,527,cs),
(279,527,o),
(230,492,o),
(198,439,c),
(195,439,l),
(195,512,l),
(39,512,l)
);
}
);
width = 869;
}
);
note = m;
unicode = 109;
},
{
glyphname = n;
kernLeft = m;
kernRight = h;
layers = (
{
hints = (
{
horizontal = 1;
place = (0, 21);
target = up;
type = BottomGhost;
},
{
horizontal = 1;
place = (391, 136);
place = (391, 136);
type = Stem;
},
{
place = (39, 163);
place = (39, 163);
type = Stem;
},
{
place = (372, 163);
place = (372, 163);
type = Stem;
},
{
horizontal = 1;
place = (391, 121);
place = (391, 121);
type = Stem;
}
);
layerId = m01;
shapes = (
{
closed = 1;
nodes = (
(39,0,l),
(202,0,l),
(202,283,ls),
(202,346,o),
(238,391,o),
(292,391,cs),
(345,391,o),
(372,354,o),
(372,300,cs),
(372,0,l),
(535,0,l),
(535,333,ls),
(535,447,o),
(469,527,o),
(357,527,cs),
(286,527,o),
(237,497,o),
(199,442,c),
(196,442,l),
(196,512,l),
(39,512,l)
);
}
);
width = 570;
}
);
note = n;
unicode = 110;
},
{
glyphname = o;
kernLeft = c;
kernRight = o;
lastChange = "2023-04-04 19:53:45 +0000";
layers = (
{
hints = (
{
horizontal = 1;
place = (-16, 116);
place = (-16, 116);
type = Stem;
},
{
horizontal = 1;
place = (411, 115);
place = (411, 115);
type = Stem;
},
{
place = (16, 165);
place = (16, 165);
type = Stem;
},
{
place = (398, 165);
place = (398, 165);
type = Stem;
}
);
layerId = m01;
shapes = (
{
closed = 1;
nodes = (
(126,526,o),
(16,409,o),
(16,255,cs),
(16,101,o),
(126,-16,o),
(290,-16,cs),
(455,-16,o),
(563,101,o),
(563,255,cs),
(563,409,o),
(455,526,o),
(290,526,cs)
);
},
{
closed = 1;
nodes = (
(360,411,o),
(398,348,o),
(398,255,cs),
(398,162,o),
(360,100,o),
(289,100,cs),
(218,100,o),
(181,162,o),
(181,255,cs),
(181,348,o),
(218,411,o),
(289,411,cs)
);
}
);
width = 579;
}
);
note = o;
unicode = 111;
},
{
glyphname = p;
kernLeft = p;
kernRight = thorn;
lastChange = "2023-04-04 19:53:47 +0000";
layers = (
{
hints = (
{
horizontal = 1;
place = (-169, 21);
target = up;
type = BottomGhost;
},
{
horizontal = 1;
place = (-16, 126);
place = (-16, 126);
type = Stem;
},
{
horizontal = 1;
place = (396, 131);
place = (396, 131);
type = Stem;
},
{
place = (39, 163);
place = (39, 163);
type = Stem;
},
{
place = (407, 165);
place = (407, 165);
type = Stem;
},
{
horizontal = 1;
place = (396, 116);
place = (396, 116);
type = Stem;
}
);
layerId = m01;
shapes = (
{
closed = 1;
nodes = (
(39,-169,l),
(202,-169,l),
(202,53,l),
(204,53,l),
(236,10,o),
(283,-16,o),
(349,-16,cs),
(483,-16,o),
(572,90,o),
(572,256,cs),
(572,410,o),
(489,527,o),
(353,527,cs),
(283,527,o),
(233,496,o),
(198,450,c),
(195,450,l),
(195,512,l),
(39,512,l)
);
},
{
closed = 1;
nodes = (
(374,396,o),
(407,338,o),
(407,250,cs),
(407,163,o),
(369,110,o),
(307,110,cs),
(237,110,o),
(197,167,o),
(197,250,cs),
(197,333,o),
(233,396,o),
(304,396,cs)
);
}
);
width = 588;
}
);
note = p;
unicode = 112;
},
{
glyphname = q;
kernLeft = d;
kernRight = q;
lastChange = "2023-04-04 19:53:49 +0000";
layers = (
{
hints = (
{
horizontal = 1;
place = (-169, 21);
target = up;
type = BottomGhost;
},
{
horizontal = 1;
place = (-16, 129);
place = (-16, 129);
type = Stem;
},
{
horizontal = 1;
place = (399, 128);
place = (399, 128);
type = Stem;
},
{
place = (20, 165);
place = (20, 165);
type = Stem;
},
{
place = (387, 162);
place = (387, 162);
type = Stem;
},
{
horizontal = 1;
place = (399, 113);
place = (399, 113);
type = Stem;
}
);
layerId = m01;
shapes = (
{
closed = 1;
nodes = (
(394,512,l),
(394,447,l),
(391,447,l),
(358,499,o),
(311,527,o),
(245,527,cs),
(102,527,o),
(20,410,o),
(20,256,cs),
(20,90,o),
(113,-16,o),
(242,-16,cs),
(308,-16,o),
(355,12,o),
(384,54,c),
(387,54,l),
(387,-169,l),
(549,-169,l),
(549,512,l)
);
},
{
closed = 1;
nodes = (
(356,399,o),
(392,335,o),
(392,252,cs),
(392,168,o),
(351,113,o),
(286,113,cs),
(222,113,o),
(185,164,o),
(185,252,cs),
(185,339,o),
(216,399,o),
(286,399,cs)
);
}
);
width = 588;
}
);
note = q;
unicode = 113;
},
{
glyphname = r;
kernLeft = m;
kernRight = r;
lastChange = "2023-04-04 06:03:09 +0000";
layers = (
{
hints = (
{
horizontal = 1;
place = (0, 21);
target = up;
type = BottomGhost;
},
{
horizontal = 1;
place = (520, -20);
target = down;
type = TopGhost;
},
{
place = (39, 163);
place = (39, 163);
type = Stem;
},
{
horizontal = 1;
place = (516, -20);
target = down;
type = TopGhost;
},
{
horizontal = 1;
place = (512, -20);
target = down;
type = TopGhost;
}
);
layerId = m01;
shapes = (
{
closed = 1;
nodes = (
(39,0,l),
(202,0,l),
(202,230,ls),
(202,328,o),
(252,378,o),
(333,378,cs),
(344,378,o),
(355,378,o),
(370,376,c),
(370,516,l),
(363,519,o),
(353,520,o),
(338,520,cs),
(276,520,o),
(234,493,o),
(198,432,c),
(195,432,l),
(195,512,l),
(39,512,l)
);
}
);
width = 383;
}
);
note = r;
unicode = 114;
},
{
glyphname = s;
kernLeft = scaron;
kernRight = scaron;
lastChange = "2023-04-04 06:05:03 +0000";
layers = (
{
hints = (
{
horizontal = 1;
place = (-16, 106);
place = (-16, 106);
type = Stem;
},
{
horizontal = 1;
place = (423, 104);
place = (423, 104);
type = Stem;
},
{
place = (22, 149);
place = (22, 149);
type = Stem;
},
{
place = (336, 154);
place = (336, 154);
type = Stem;
},
{
horizontal = 1;
place = (363, 164);
place = (363, 164);
type = Stem;
}
);
layerId = m01;
shapes = (
{
closed = 1;
nodes = (
(466,464,o),
(388,527,o),
(243,527,cs),
(122,527,o),
(22,471,o),
(22,363,cs),
(22,243,o),
(117,219,o),
(206,204,cs),
(274,192,o),
(336,187,o),
(336,141,cs),
(336,108,o),
(305,90,o),
(256,90,cs),
(202,90,o),
(168,115,o),
(162,166,c),
(8,166,l),
(13,53,o),
(107,-16,o),
(257,-16,cs),
(391,-16,o),
(490,42,o),
(490,154,cs),
(490,285,o),
(384,308,o),
(294,323,cs),
(229,335,o),
(171,340,o),
(171,376,cs),
(171,408,o),
(202,423,o),
(242,423,cs),
(287,423,o),
(318,409,o),
(324,363,c),
(474,363,l)
);
}
);
width = 504;
}
);
note = s;
unicode = 115;
},
{
glyphname = t;
kernLeft = t;
kernRight = t;
lastChange = "2023-04-04 06:05:50 +0000";
layers = (
{
hints = (
{
horizontal = 1;
place = (-6, 126);
place = (-6, 126);
type = Stem;
},
{
horizontal = 1;
place = (410, 102);
place = (410, 102);
type = Stem;
},
{
place = (79, 159);
place = (79, 159);
type = Stem;
}
);
layerId = m01;
shapes = (
{
closed = 1;
nodes = (
(11,410,l),
(79,410,l),
(79,135,ls),
(79,25,o),
(147,-6,o),
(242,-6,cs),
(286,-6,o),
(317,-2,o),
(331,2,c),
(331,121,l),
(325,121,o),
(309,120,o),
(295,120,cs),
(260,120,o),
(238,130,o),
(238,170,cs),
(238,410,l),
(331,410,l),
(331,512,l),
(238,512,l),
(238,674,l),
(79,674,l),
(79,512,l),
(11,512,l)
);
}
);
width = 351;
}
);
note = t;
unicode = 116;
},
{
glyphname = u;
kernLeft = u;
kernRight = u;
lastChange = "2023-04-04 06:07:58 +0000";
layers = (
{
hints = (
{
horizontal = 1;
place = (-15, 138);
place = (-15, 138);
type = Stem;
},
{
horizontal = 1;
place = (512, -20);
target = down;
type = TopGhost;
},
{
place = (35, 162);
place = (35, 162);
type = Stem;
},
{
place = (364, 163);
place = (364, 163);
type = Stem;
},
{
horizontal = 1;
place = (0, 123);
place = (0, 123);
type = Stem;
}
);
layerId = m01;
shapes = (
{
closed = 1;
nodes = (
(35,176,ls),
(35,62,o),
(97,-15,o),
(215,-15,cs),
(286,-15,o),
(331,13,o),
(368,63,c),
(371,63,l),
(371,0,l),
(527,0,l),
(527,512,l),
(364,512,l),
(364,226,ls),
(364,165,o),
(330,123,o),
(274,123,cs),
(222,123,o),
(197,154,o),
(197,210,cs),
(197,512,l),
(35,512,l)
);
}
);
width = 566;
}
);
note = u;
unicode = 117;
},
{
glyphname = v;
kernLeft = v;
kernRight = v;
lastChange = "2023-04-04 06:09:44 +0000";
layers = (
{
hints = (
{
horizontal = 1;
place = (0, 21);
target = up;
type = BottomGhost;
},
{
horizontal = 1;
place = (512, -20);
target = down;
type = TopGhost;
},
{
place = (-3, 530);
place = (-3, 530);
type = Stem;
}
);
layerId = m01;
shapes = (
{
closed = 1;
nodes = (
(174,0,l),
(350,0,l),
(527,512,l),
(364,512,l),
(265,178,l),
(263,178,l),
(165,512,l),
(-3,512,l)
);
}
);
width = 524;
}
);
note = v;
unicode = 118;
},
{
glyphname = w;
kernLeft = w;
kernRight = w;
lastChange = "2023-04-04 06:10:33 +0000";
layers = (
{
hints = (
{
horizontal = 1;
place = (0, 21);
target = up;
type = BottomGhost;
},
{
horizontal = 1;
place = (512, -20);
target = down;
type = TopGhost;
},
{
place = (-2, 786);
place = (-2, 786);
type = Stem;
}
);
layerId = m01;
shapes = (
{
closed = 1;
nodes = (
(155,0,l),
(306,0,l),
(390,324,l),
(392,324,l),
(474,0,l),
(627,0,l),
(784,512,l),
(623,512,l),
(542,200,l),
(540,200,l),
(460,512,l),
(322,512,l),
(245,201,l),
(243,201,l),
(164,512,l),
(-2,512,l)
);
}
);
width = 783;
}
);
note = w;
unicode = 119;
},
{
glyphname = x;
kernLeft = x;
kernRight = x;
lastChange = "2023-04-04 06:14:10 +0000";
layers = (
{
hints = (
{
horizontal = 1;
place = (0, 21);
target = up;
type = BottomGhost;
},
{
horizontal = 1;
place = (512, -20);
target = down;
type = TopGhost;
},
{
place = (7, 546);
place = (7, 546);
type = Stem;
}
);
layerId = m01;
shapes = (
{
closed = 1;
nodes = (
(185,269,l),
(7,0,l),
(185,0,l),
(278,153,l),
(280,153,l),
(364,0,l),
(553,0,l),
(379,271,l),
(531,512,l),
(360,512,l),
(288,380,l),
(286,380,l),
(210,512,l),
(24,512,l)
);
}
);
width = 560;
}
);
note = x;
unicode = 120;
},
{
glyphname = y;
kernLeft = yacute;
kernRight = yacute;
lastChange = "2023-04-04 06:17:30 +0000";
layers = (
{
hints = (
{
horizontal = 1;
place = (-169, 127);
place = (-169, 127);
type = Stem;
},
{
horizontal = 1;
place = (512, -20);
target = down;
type = TopGhost;
},
{
place = (-3, 535);
place = (-3, 535);
type = Stem;
}
);
layerId = m01;
shapes = (
{
closed = 1;
nodes = (
(148,118,ls),
(169,64,o),
(179,34,o),
(179,12,cs),
(179,-23,o),
(160,-42,o),
(112,-42,cs),
(93,-42,o),
(75,-42,o),
(56,-42,c),
(56,-169,l),
(91,-169,o),
(127,-169,o),
(162,-169,cs),
(265,-169,o),
(314,-127,o),
(355,-7,cs),
(532,512,l),
(369,512,l),
(272,176,l),
(270,176,l),
(169,512,l),
(-3,512,l)
);
}
);
width = 529;
}
);
note = y;
unicode = 121;
},
